<svg width="61" height="48" viewBox="0 0 61 48" fill="none" xmlns="http://www.w3.org/2000/svg">
<path d="M17.9488 15.4896C16.2472 14.4239 14.273 13.8758 12.2661 13.9118C10.9773 13.9112 9.70267 14.1806 8.52408 14.7025C7.3727 15.1784 6.32231 15.8692 5.42896 16.7382C5.11868 17.0443 4.8463 17.3867 4.61765 17.7579V14.3054H0V48.0004H4.61765V34.8702C4.78206 35.0562 4.89642 35.2637 5.10372 35.4748C6.06959 36.3795 7.18759 37.1062 8.40614 37.6214C9.94736 38.284 11.6274 38.5579 13.299 38.4193C14.9702 38.2827 16.5826 37.7386 17.9953 36.8343C19.6639 35.7579 21.0121 34.2513 21.8981 32.4731C22.8699 30.5184 23.3601 28.3593 23.3278 26.1763C23.3686 23.9734 22.8691 21.7941 21.8731 19.8294C20.9745 18.0587 19.6197 16.5605 17.9488 15.4896ZM17.9488 30.262C17.3655 31.4293 16.4791 32.4179 15.3827 33.1242C14.2792 33.8263 12.9944 34.1894 11.6871 34.1689C10.3658 34.1851 9.06734 33.8227 7.94509 33.1242C6.84963 32.4178 5.96443 31.4292 5.38249 30.262C4.7498 28.9843 4.42077 27.5774 4.42108 26.1512C4.42598 24.7241 4.75989 23.3173 5.39679 22.0404C5.97911 20.8698 6.87977 19.8876 7.99512 19.2069C9.11052 18.5268 10.3956 18.177 11.7014 18.1979C13.0173 18.1815 14.3106 18.5415 15.4291 19.2355C16.5164 19.9297 17.3947 20.9067 17.9703 22.0619C18.6103 23.3318 18.9282 24.7399 18.8959 26.162C18.915 27.5902 18.5745 29.0002 17.9059 30.262H17.9488Z" fill="#E6E6E6"/>
<path d="M46.4979 14.3301H41.001L35.572 22.6912L29.1745 14.3301H23.3274L32.4769 26.1366L23.3738 38.0647H28.8743L35.136 29.6106L41.6301 38.0862H47.3092L38.1418 26.0328L46.4979 14.3301Z" fill="#E6E6E6"/>
<path d="M55.3882 4.64941H50.7419V38.0904H55.3882V4.64941Z" fill="#E6E6E6"/>
<path d="M55.3885 0V4.64609H60.0346V0H55.3885Z" fill="#E6E6E6"/>
</svg>
